<svg xmlns="http://www.w3.org/2000/svg" viewBox="0 0 512 512" role="img" aria-label="CasaClima">
  <defs>
    <linearGradient id="sky" x1="0" x2="1" y1="0" y2="1">
      <stop offset="0" stop-color="#67e8f9"/>
      <stop offset="0.52" stop-color="#2f8fff"/>
      <stop offset="1" stop-color="#f59e0b"/>
    </linearGradient>
    <linearGradient id="home" x1="0" x2="1" y1="0" y2="1">
      <stop offset="0" stop-color="#ffffff"/>
      <stop offset="1" stop-color="#dbeafe"/>
    </linearGradient>
  </defs>
  <rect width="512" height="512" rx="112" fill="#08131f"/>
  <path d="M76 334c0-71 58-129 129-129 58 0 107 39 123 92 31 5 54 31 54 63 0 35-29 64-64 64H132c-31 0-56-25-56-56 0-17 7-32 19-42a80 80 0 0 1-19-52Z" fill="url(#sky)" opacity=".92"/>
  <path d="M162 318 256 242l94 76v108H162Z" fill="url(#home)"/>
  <path d="M141 321 256 228l115 93" fill="none" stroke="#f97316" stroke-width="28" stroke-linecap="round" stroke-linejoin="round"/>
  <path d="M229 426v-67h58v67" fill="#0f172a" opacity=".82"/>
  <circle cx="360" cy="151" r="47" fill="#fde68a"/>
  <path d="M91 146h100M118 184h96M96 222h64" fill="none" stroke="#67e8f9" stroke-width="18" stroke-linecap="round" opacity=".72"/>
</svg>
